<?xml version="1.0" encoding="utf-8" ?><svg xmlns="http://www.w3.org/2000/svg" xmlns:xlink="http://www.w3.org/1999/xlink" width="2122" height="1898" viewBox="0 0 2122 1898"><path fill="#FEFEFE" d="M739.854 0C743.238 6.32419 745.62 12.7184 748.634 19.1508C765.99 56.1973 780.12 96.7422 798.089 133.331C817.609 129.778 834.351 126.906 853.419 134.542C863.147 128.248 874 122.273 884.258 116.829C918.635 98.5851 952.82 78.4236 987.696 61.2141C951.962 96.9038 916.543 144.529 880.644 180.288C885.239 198.882 881.94 224.721 878.547 243.662C909.16 252.453 939.529 263.841 970.135 272.836C975.783 274.496 981.972 276.452 987.439 278.623C950.856 280.036 906.509 286.856 871.532 287.143C869.237 303.078 866.521 325.023 863.336 340.418C897.952 351.073 932.654 361.449 967.438 371.545C930.94 375.705 893.468 378.392 857.304 382.793C854.876 407.828 849.94 437.987 848.574 462.266C867.449 466.286 886.069 471.448 904.749 476.277C911.186 477.941 917.647 479.562 924.317 479.959C924.801 480.49 925.284 481.021 925.768 481.552C923.224 483.478 852.819 497.274 844.361 498.967C840.216 531.779 837.879 564.279 834.651 597.071C871.882 593.404 901.645 590.113 937.954 580.669L939.861 528.259C940.17 519.297 941.02 506.14 940.331 497.747C950.638 520.229 963.58 546.444 972.637 568.872C993.747 558.955 1015.43 548.295 1034.87 535.353C1020.7 501.875 1004.65 458.48 989.423 426.924C1015.06 453.179 1044.74 484.27 1070.8 509.455C1091.97 495.792 1147.82 436.844 1164.15 415.113C1143.92 389.875 1122.97 359.884 1103.51 333.561C1114.11 341.404 1129.47 349.365 1141.28 355.924C1157.67 364.908 1173.89 374.2 1189.93 383.793C1196.58 375.027 1203.74 366.707 1210.29 357.922C1201.18 347.095 1190.61 336.525 1180.96 326.039L1135.13 275.698C1127.28 267.155 1116.45 256.044 1109.24 247.223C1153.07 270.486 1198.93 291.765 1242.48 315.245C1275.55 273.508 1298.56 246.576 1339.87 212.149C1320.34 167.483 1297.41 119.564 1276.9 74.8783C1300.07 97.0966 1323.03 119.54 1345.77 142.206C1357.68 154.078 1373.14 168.754 1384.27 181.095C1414.77 162.75 1442.45 149.415 1477.11 140.207C1484.49 138.245 1491.02 137.379 1497.87 135.721L1507.97 48.9947C1509.41 36.4758 1511.75 20.3799 1512.42 8.19031C1520.24 34.4514 1527.66 60.8298 1534.68 87.3163C1538.5 101.23 1543.02 115.625 1546.24 129.589C1578.94 128.02 1624.94 132.558 1656.45 141.759C1674.45 109.26 1696.87 75.158 1713.96 42.6903C1707.03 79.4086 1704.83 119.576 1698.25 155.26C1735.36 168.015 1759.99 187.672 1791.23 209.052C1801.27 200.869 1816.82 190.72 1827.83 183.022L1891.17 138.55C1905.01 128.906 1921.4 118.148 1934.56 107.887C1925.66 122.387 1912.5 140.155 1902.39 154.27L1858.8 215.692C1851.65 225.851 1840.05 241.437 1834.06 251.878C1850.61 270.61 1859.68 284.044 1874.14 303.367C1921.9 287.296 1977.49 270.384 2026.03 256.175C2011.76 265.366 1997.24 277.513 1983.61 287.837C1955.87 308.85 1928.59 330.962 1900.43 351.42C1905.62 363.411 1911.37 376.151 1915.95 388.3C1941.38 386.941 1970.35 381.356 1995.98 378.885C2004.77 378.037 2015.3 376.088 2024 375.786C1996.46 393.396 1958.72 412.759 1929.25 430.306C1939.01 465.119 1944 489.351 1947.7 525.7L2036.78 537.469C2052.04 539.473 2073.82 542.802 2088.86 543.691C2059.22 550.332 2029.67 557.328 2000.2 564.679C1984.79 568.383 1965.46 572.262 1950.78 576.42C1950.6 583.61 1949 607.426 1952.36 611.828C1968.71 617.748 1992.89 623.364 2010.19 628.142C2047.51 638.404 2084.78 648.855 2122 659.495C2067.04 663.631 2001.21 670.378 1947 672.131C1947.43 703.463 1934.05 750.129 1930.37 780.6C1943.13 788.907 1966.63 800.248 1980.9 807.648C2006.15 820.827 2031.24 834.314 2056.15 848.107C2037.68 844.925 2018.19 843.058 1999.52 840.755C1972.24 837.208 1944.94 833.809 1917.62 830.556C1912.13 851.281 1907.8 866.842 1900.55 887.19C1931.81 907.325 1962.56 926.496 1993.41 947.474C1979.53 943.523 1962.29 940.856 1947.88 938.226C1927.45 934.435 1907 930.758 1886.53 927.193C1880.72 944.223 1867.35 981.209 1858.65 996.825C1868 1003.16 1877.41 1011.11 1886.48 1018.04L1937.72 1057.22C1949.4 1066.33 1978.17 1087.65 1987.93 1097.31C1937.96 1079.95 1886.83 1064.97 1836.99 1047.87C1831.01 1057.33 1823.71 1072.49 1818.45 1082.85C1857.37 1112.57 1903.5 1150.35 1939.99 1182.5L1831.65 1144.46C1819.49 1140.2 1806.14 1134.88 1794.16 1130.98C1786.96 1144.28 1775.8 1162.05 1769.72 1174.49C1787.25 1189.31 1805.05 1208.82 1821.53 1225.08C1830.53 1233.96 1839.28 1244.76 1849.32 1252.39C1819.2 1238.21 1780.42 1223.48 1749.12 1210.32C1739.84 1225.15 1730.42 1240.72 1720.63 1255.13C1725.14 1258.88 1729.18 1262.87 1733.25 1267.09C1753.06 1287.64 1773.81 1307.66 1793.02 1328.77C1761.73 1315.32 1730.03 1303.44 1698.82 1289.54C1691.26 1300.86 1682.04 1315.8 1673.89 1326.15C1693.86 1343.34 1716.97 1366.79 1735.94 1385.3C1709.22 1376.06 1679.7 1365.9 1652.79 1357.22C1640.7 1371.92 1628.5 1389.69 1617.14 1405.16C1603.13 1424.07 1588.84 1442.79 1574.29 1461.29C1565.91 1472.04 1555.09 1486.64 1545.82 1496.14C1566.85 1500.42 1587.7 1505.08 1608.86 1508.8C1622.1 1511.12 1635.35 1512.28 1648.55 1514.35C1660.66 1491.66 1672.41 1463.14 1685.01 1441.63C1684.68 1466.22 1685.6 1492.19 1685.95 1516.9C1709.93 1517.79 1729.75 1516.66 1752.7 1517.07L1764.19 1448.68C1765.55 1440.89 1768.53 1421.81 1770.62 1415.02C1778.93 1447.35 1786.92 1479.77 1794.58 1512.26C1809.62 1511.47 1842.2 1503.07 1858.14 1499.35C1859.93 1479.66 1860.36 1456.88 1861.23 1436.91C1862.67 1406.28 1863.92 1375.65 1864.97 1345L1892.79 1430.31C1897.73 1445.38 1905.35 1466.48 1909.29 1481.35L1910.84 1480.77C1937.82 1470.39 1949.28 1452.74 1977.96 1462.41C2011.31 1435.58 2048.41 1410.75 2081.74 1384.74C2062.43 1412.02 2044.61 1441.53 2025.71 1469.13C2018.97 1478.96 2011.1 1491.68 2003.92 1500.98C2014.47 1534.82 2015.58 1578.16 2004.5 1611.9C2033.25 1631.19 2067.03 1655.05 2096.04 1673.1C2060.39 1666.38 2024.53 1657.9 1988.78 1652C1984.82 1660.97 1976.44 1673.39 1970.07 1680.99C1978 1695.71 1997.02 1723.43 2006.81 1738.08C2021.82 1760.54 2038.45 1788.09 2053.97 1809.59C2013.3 1780.24 1969.84 1744.75 1929.14 1716.9C1919.03 1727.22 1886.28 1740.14 1872.91 1744.61L1871.93 1886.74C1861.21 1856.2 1847.88 1825.91 1836.33 1795.65C1831.93 1784.14 1824.6 1767.91 1821.14 1756.51C1805.39 1759.84 1760.86 1764.72 1744.17 1765.17C1741.11 1778.99 1728.64 1858.52 1725.47 1864.36C1722.3 1854.52 1720.49 1842.58 1718.06 1832.19C1712.67 1809.82 1707.51 1787.4 1702.58 1764.93C1677.57 1765.38 1651.39 1761.63 1627.24 1761.91C1625.39 1778.92 1616.38 1814.98 1612.23 1833.03C1608.18 1850.67 1602.63 1882.38 1597.87 1898C1594.72 1884.58 1592.26 1865.45 1590.04 1851.43L1575.46 1757.84C1556.26 1756.68 1515.68 1752.97 1498.38 1753.5C1491.17 1785.54 1482.72 1818.66 1476.52 1850.71C1469.47 1822.29 1462.87 1782.4 1458.16 1752.84C1425.19 1752.88 1398.89 1753.91 1365.94 1757.31L1350.78 1896.27C1338.02 1852.29 1326.15 1805.44 1314.05 1761C1268.38 1767.33 1234.9 1771.3 1196.09 1742.97C1173.32 1757.78 1150.66 1772.74 1128.1 1787.86C1116.46 1795.64 1101.03 1805.45 1090.31 1813.98C1115.69 1778.86 1142.14 1744.73 1167.99 1709.99C1155.54 1689.99 1148.71 1667.67 1145.78 1644.42C1132.25 1642.42 1098.2 1632.57 1083.83 1628.75C1068.12 1624.57 1036.01 1617.32 1021.79 1612.17C1061.9 1608.45 1111.53 1601.6 1150.6 1599.77C1165.96 1548.59 1185.88 1529.8 1223.3 1492.69C1230.61 1485.44 1241.14 1475.77 1247.72 1468.29C1238.89 1452.41 1223.85 1418.95 1215.77 1401.76C1204.92 1378.68 1186.99 1344.56 1177.86 1321.61C1214.26 1357.28 1252.47 1393.05 1288 1429.38C1301.69 1415.9 1326.27 1391.67 1338.68 1377.48C1319.72 1351.7 1303.85 1321.06 1285.6 1294.51C1282.28 1289.67 1278.57 1283.84 1275.72 1278.75C1302.28 1298.16 1343.37 1326.3 1367.28 1346.52C1382.41 1328.75 1399.46 1312.35 1414.37 1294.16C1395.22 1265.91 1371.77 1228.5 1351.84 1202.05C1380.84 1221.71 1413.84 1241.48 1441.82 1261.93C1455.93 1247.18 1468.31 1229.46 1481.72 1214.39C1462.25 1187.93 1436.55 1151.07 1416.27 1125.99C1437.51 1138.61 1458.82 1151.12 1480.19 1163.52C1489.22 1168.84 1500.4 1176.35 1509.03 1181C1523.48 1162.19 1537.67 1143.19 1551.6 1123.99L1491.78 1059.22C1481.76 1048.41 1467.02 1033.87 1458.27 1022.52C1490.3 1040.27 1524.28 1055.88 1556.9 1072.61C1563.82 1076.16 1572.95 1081.41 1579.84 1084.23C1605.58 1047.47 1629.94 1009.77 1652.89 971.209C1640.02 962.207 1616.37 940.438 1603.55 929.532C1591.99 919.706 1565.67 897.727 1556.56 887.719C1592.54 902.862 1637.79 918.138 1674.95 931.659C1682.52 917.992 1696.58 893.47 1701.91 879.833L1654.75 843.338C1646.32 836.825 1634.55 827.299 1625.8 821.773C1656.91 828.821 1687.91 836.359 1718.79 844.384C1736.26 803.404 1748.54 771.364 1761.06 728.674C1736.64 713.856 1710.73 701.046 1685.82 687.039C1679.58 683.53 1673.42 680.529 1666.87 677.648C1690.55 679.482 1714.21 681.632 1737.83 684.096C1746.93 684.986 1763.22 687.063 1771.77 687.179C1773.87 677.883 1778.85 651.545 1779.49 642.328C1765.66 638.087 1748.62 635.492 1734.22 632.065C1700.85 624.127 1665.23 617.884 1632.12 609.506C1656.06 604.763 1686.08 601.088 1710.53 597.48C1732.67 594.212 1762.86 588.985 1784.88 587.258C1785.28 552.988 1784.37 522.137 1775.29 488.687C1760.63 490.875 1742.88 495.495 1728.04 498.752C1701.3 504.381 1674.65 510.429 1648.09 516.893C1654.71 511.293 1676.41 497.891 1684.95 492.264C1710.24 475.475 1735.62 458.835 1761.1 442.344C1755.22 427.416 1744.9 404.385 1733.81 392.759C1725.41 400.889 1673.63 449.245 1669.51 456.655C1668.37 453.682 1701.28 373.839 1704.75 365.761C1685.41 354.655 1674.94 348.909 1652.46 344.605C1641.43 376.282 1627.49 413.498 1617.76 445.036C1615.9 411.955 1612.01 371.601 1611.19 339.688C1586.49 343.209 1580.02 344.124 1556.4 353.409C1562.36 388.823 1564.49 429.081 1571.21 463.635C1557.39 438.49 1534.56 397.518 1518.86 373.779C1495.53 388.455 1459.14 419.574 1441.08 440.39C1464.58 471.105 1486.43 503.811 1509.49 534.863C1517.4 545.517 1531.57 566.304 1540.18 575.483C1496.68 546.05 1446.51 509.99 1402.53 482.723C1390.7 497.058 1377.35 511.373 1366.45 526.462L1424.96 597.005C1440.09 615.22 1456.5 635.615 1472.39 653.032C1428 625.366 1375.14 598.345 1332.02 570.101C1321.58 582.091 1312.28 595.205 1302.08 607.34C1280.49 633.018 1254.26 662.871 1229.16 685.109C1251.09 728.575 1270.16 776.332 1292.55 820.565C1257.25 786.581 1222.33 752.214 1187.78 717.473C1171.14 729.032 1144.43 745.704 1126.53 755.055C1136.09 802.494 1143.23 850.873 1152.06 898.477C1153.21 904.699 1154.27 911.344 1155.79 917.45L1104.95 828.255C1095.72 812.095 1084.42 793.343 1076.1 776.89C1067.73 780.056 1051.95 784.918 1044.78 788.417C1045.23 821.117 1044.86 856.881 1046.06 889.254C1043.08 881.013 1039.44 872.622 1035.73 864.657C1025.52 842.705 1016.21 820.064 1005.98 798.169C991.116 801.765 975.758 804.128 961.281 807.735C958.82 839.467 954.063 881.859 953.642 912.786L920.144 812.12C894.622 816.406 846.026 815.962 819.295 815.967C816.286 838.056 815.236 860.489 813.973 882.751C840.055 892.674 870.101 905.722 895.917 916.71C872.113 917.377 834.396 918.519 811.252 920.994C810.603 932.854 810.203 946.799 809.175 958.508C838.698 967.24 868.853 973.646 898.528 981.818C904.113 983.356 909.721 984.919 915.355 986.264C890.307 990.617 864.459 993.431 839.326 997.51C830.62 998.923 814.624 1000.58 806.921 1002.86C805.862 1024.02 805.061 1045.19 804.517 1066.37L895.57 1092.01C914.067 1097.34 944.063 1106.84 962.063 1110.38C924.096 1115.47 885.277 1117.06 847.175 1120.52C836.948 1121.45 811.151 1122.75 802.231 1124.66C802.438 1141.35 801.922 1158.07 801.901 1174.77C827.944 1177.06 866.934 1185.94 893.753 1190.49C911.42 1193.49 945.153 1198.77 961.042 1203.01C924.932 1209.19 888.859 1215.58 852.824 1222.17C837.181 1225.01 816.704 1229.39 801.274 1231.37C802.033 1248.98 801.956 1267.26 801.979 1284.93C833.134 1290.88 864.572 1295.36 895.779 1301.05C899.776 1301.78 904.667 1302.03 908.403 1303.32C902.539 1306.84 893.743 1307.07 886.851 1308.69L802.939 1328.53C802.795 1346.06 803.99 1363.42 804.998 1380.91L871.204 1388.88C882.028 1390.18 902.89 1392.25 912.754 1394.86C898.134 1397.49 875.432 1404.98 860.553 1409.25C844.289 1413.92 823.436 1418.92 807.8 1424.21C808.008 1438.23 810.236 1455.7 810.006 1468.06L899.467 1472.62C911.005 1473.12 924.103 1474.28 935.469 1474.05C895.279 1486.87 854.116 1501.62 813.87 1513.58C814.867 1528.47 816.473 1543.32 818.683 1558.09L912.5 1558.91C928.108 1559.01 944.98 1558.47 960.416 1558.9C915.343 1574.71 870.418 1590.93 825.646 1607.57C828.862 1638.36 838.684 1668.32 831.422 1698.36C866.191 1728.29 899.408 1761.06 933.532 1791.79C891.535 1774.21 847.597 1757.34 806.128 1739.46C790.121 1753.27 765.028 1762.32 744.295 1764.65C736.749 1791.23 730.96 1835.97 725.295 1864.7L710.449 1798.65C708.222 1788.99 704.385 1774.56 702.886 1765.2C667.242 1758.39 649.099 1754.21 620.359 1730.66C607.648 1740.84 590.962 1751.39 577.512 1760.99C547.999 1782.06 517.274 1802.67 488.145 1824.26C516.218 1786.41 542.511 1747.03 570.723 1709.23C575.671 1702.61 580.27 1695.6 585.453 1689.16C572.001 1665.65 567.1 1652.22 562.197 1624.96C510.405 1624.65 456.543 1622.96 405.043 1623.3C433.995 1613.09 463.01 1603.06 492.087 1593.21C511.204 1586.72 536.186 1578.64 554.609 1571.15C552.64 1561.7 551.706 1554.58 550.572 1545.08C507.677 1541.6 464.752 1538.48 421.803 1535.73C409.604 1534.97 395.477 1533.3 383.678 1532.87C405.175 1527.56 427.136 1520.64 448.568 1514.69C480.845 1505.73 513.248 1497.21 545.079 1486.8C544.744 1474.38 543.764 1457.67 542.458 1445.31C505.287 1440.03 467.347 1435.97 430.51 1430.37C464.807 1423.36 506.439 1410.15 541.418 1401.38C540.858 1376.16 541.967 1356.5 542.149 1332.16C512.149 1323.21 469.748 1315.89 438.094 1308.37C470.207 1303.71 513.046 1292.67 543.033 1289.56C544.323 1275.44 546.331 1248.05 546.097 1234.14L460.844 1215.61C445.121 1212.23 425.567 1208.64 410.276 1204.57C456.814 1196.73 504.022 1191.82 550.173 1183.31C554.145 1144.55 557.173 1106.19 561.379 1067.16C521.099 1055.3 479.96 1043.73 439.93 1031.36C468.603 1030.29 497.959 1026.94 526.61 1024.83C539.749 1023.86 554.919 1021.91 567.886 1021.94C570.429 1003.15 572.986 982.44 576.457 963.932C560.274 959.637 516.345 949.121 502.788 943.667C524.318 941.296 560.427 932.974 582.295 928.457C587.418 896.518 593.493 858.738 600.651 827.395C568.892 832.233 533.487 836.038 501.105 840.515C498.401 867.268 492.591 904.689 491.574 930.529L473.857 877.864C470.822 868.773 466.685 855.138 462.946 846.518C448.23 849.788 433.068 850.922 417.238 854.39C415.677 897.203 414.912 940.041 414.945 982.882L387.397 904.831C382.969 892.345 376.087 874.533 372.724 862.211C362.505 864.741 345.02 869.231 334.974 870.715C335.786 905.505 337.185 940.279 339.168 975.023C340.025 992.173 340.416 1016.7 342.484 1033.08L281.618 883.113C262.478 889.419 247.377 892.191 228.062 896.945C225.435 916.701 223.185 936.506 221.314 956.348C219.901 970.021 217.73 987.657 217.647 1001.28C208.443 971.348 194.945 932.751 187.351 903.54C166.793 905.647 159.32 905.835 138.961 901.894C114.477 918.341 85.0515 935.207 59.7327 951.035C43.5408 961.158 15.9942 979.08 0 987.397L0 985.756C11.9067 973.446 28.6308 950.982 39.7962 937.057C60.7535 910.664 82.1645 884.635 104.02 858.981C103.82 830.916 104.843 824.857 110.617 797.165C85.1952 779.124 43.5857 753.785 15.9613 737.44C40.9753 742.886 66.0211 747.154 91.2986 751.146C100.124 752.539 115.917 756.046 124.072 756.473C133.867 732.845 145.566 712.783 154.51 691.681C121.467 663.961 88.7742 635.825 56.4403 607.28L129.596 634.185C144.569 639.644 163.347 646.894 178.435 651.503C190.895 628.905 205.092 611.503 217.429 591.194C212.619 584.084 202.09 573.994 196.149 567.191C179.698 548.358 160.067 529.371 143.859 510.548C172.154 525.279 212.839 542.78 242.559 556.423C257.464 535.595 279.191 511.837 292.185 492.968C258.842 453.6 227.509 404.028 194.047 363.932C205.743 370.12 217.051 378.334 228.391 385.09C261.842 405.019 297.113 431.286 330.575 450.225C340.947 439.627 353.559 427.29 363.344 416.26C334.509 379.509 306.923 324.721 277.842 286.855C298.259 304.097 327.729 323.888 349.821 340.473C361.462 349.212 391.247 373.286 401.627 379.793C411.729 370.182 427.959 354.824 439.263 346.845C429.528 326.547 419.68 306.302 409.72 286.113C404.001 274.346 398.05 260.154 391.246 249.374C414.62 269.526 450.572 298.321 471.853 319.349C507.192 290.251 536.959 269.858 574.164 244.314C558.815 198.913 540.956 153.669 525.311 108.32C530.934 112.87 542.977 127.627 548.153 133.65L595.135 188.393C601.088 195.468 613.304 211.298 619.162 216.793C627.338 211.404 654.817 195.601 659.112 191.792C658.586 182.699 651.569 156.829 648.91 146.52C644.541 129.585 640.091 106.945 634.745 90.7238C640.712 96.2723 646.239 105.326 651.517 111.673C666.586 129.792 682.236 154.97 697.175 172.449C714.41 164.492 729.502 157.794 747.088 150.603C745.654 101.296 741.803 49.7401 739.854 0ZM409.264 686.505C479.125 663.845 547.006 640.921 619.306 626.792C626.873 625.313 636.13 623.444 643.526 621.368C654.909 561.615 670.439 502.058 685.51 443.126C690.402 423.996 696.746 404.534 701.514 385.45L699.393 384.843C601.071 451.055 495.34 553.596 428.533 651.788C424.879 657.158 408.306 682.132 407.066 686.051L408.121 686.887L409.264 686.505Z"/></svg>