<?xml version="1.0" encoding="utf-8" ?><svg xmlns="http://www.w3.org/2000/svg" xmlns:xlink="http://www.w3.org/1999/xlink" width="242" height="256" viewBox="0 0 242 256"><path fill="#FEFEFE" d="M121.644 246.368C117.347 245.262 111.558 243.056 107.222 241.541L82.4097 232.869C59.2934 224.827 36.1594 216.768 13.042 208.727C12.2365 208.446 10.2827 207.766 9.78478 207.161C9.43846 206.409 9.45967 203.857 9.45013 202.882L9.45604 101.095L9.4435 68.6055C9.43924 62.3225 9.14474 54.2887 9.9031 48.2507C11.8062 46.7843 28.1372 41.615 31.8039 40.3521L83.3986 22.6014L107.052 14.4617C111.55 12.9072 116.108 11.0537 120.726 9.90994C122.988 9.34963 136.409 14.6859 139.194 15.657L208.179 39.6106L224.003 45.1408C226.371 45.953 229.167 46.5842 231.383 47.7089C232.045 48.0452 232.155 48.7522 232.319 49.458C232.095 50.291 232.016 50.8174 232.014 51.6792C231.981 63.9437 231.996 76.2301 231.995 88.4934L231.997 161.419C231.996 166.714 231.606 205.777 232.196 207.352C232.081 207.989 231.295 208.393 230.738 208.587C225.56 210.389 220.366 212.15 215.186 213.95L182.094 225.449L143.917 238.706C136.687 241.221 128.904 244.081 121.644 246.368ZM19.4583 55.3177L19.4471 153.928L19.451 183.678C19.4527 188.569 19.2527 195.934 19.6381 200.612C28.3169 203.361 37.644 206.839 46.2992 209.858L93.852 226.417L111.229 232.513C113.804 233.412 119.059 235.378 121.592 235.766C124.227 235.304 130.873 232.798 133.811 231.777L157.498 223.536L201.098 208.397C207.102 206.312 216.898 203.278 222.509 200.941C222.156 195.656 222.495 186.303 222.498 180.662L222.506 139.377L222.501 83.5732C222.499 74.5482 222.197 63.8447 222.528 54.9954C214.013 52.2624 205.127 48.9897 196.645 46.0402L150.46 30.0113L132.839 23.8792C130.724 23.1436 122.468 20.0207 120.856 20.2578C114.979 21.8179 105.47 25.4227 99.4024 27.5174L59.4928 41.2708L33.1785 50.3217C30.1775 51.3528 21.9861 54.0143 19.4583 55.3177Z"/><path fill="#FEFEFE" d="M114.715 32.0464L115.333 32.0148C115.795 32.6196 115.76 34.427 115.762 35.2392C115.827 53.6441 115.785 72.0499 115.785 90.4551L115.81 106.643C115.817 110.126 116.016 114.82 115.409 118.113C114.766 119.119 101.654 123.466 99.3912 124.37C99.6108 129.39 99.469 135.274 99.4683 140.343L99.4597 173.843C99.4579 180.41 99.3103 187.749 99.6161 194.259C103.466 196.188 110.97 198.161 115.452 200.052C116.3 204.684 115.563 217.972 115.769 223.284C109.346 221.542 100.706 217.748 94.112 215.647C91.7406 214.892 80.1693 210.825 78.5415 209.835C77.7691 207.355 78.0143 197.942 78.0148 194.788L78.0185 175.361L78.0204 148.419C78.0114 143.04 77.8648 137.265 78.0835 131.936C76.0888 132.73 74.4887 133.325 72.4429 133.963C65.495 136.588 58.2665 138.986 51.2333 141.615C51.0123 161.136 51.4128 180.744 51.1305 200.296C47.9251 199.124 31.5887 193.585 30.1138 192.256C29.5454 189.761 29.7519 178.495 29.7526 175.372L29.7567 140.189L29.7567 89.6171C29.7489 82.6488 29.3023 67.5238 30.379 61.4189C31.8703 60.6419 37.0003 58.991 38.8391 58.3549L55.7449 52.4919C75.2867 45.6893 95.1186 38.5843 114.715 32.0464ZM51.1881 77.2483C51.3579 85.5451 51.179 94.1196 51.2263 102.45C51.2468 106.059 51.4687 114.413 51.1189 117.76C51.3531 118.074 51.2973 118.086 51.6165 118.23C53.7639 117.178 58.98 115.575 61.4409 114.745L81.2768 107.994C84.6281 106.857 90.2828 105.109 93.2811 103.689C93.4911 98.4956 93.5146 93.1904 93.4595 87.9858C93.3715 79.6722 93.5806 71.2957 93.4255 62.99L93.033 62.7537C80.176 67.9454 64.0552 71.9101 51.1881 77.2483Z"/><path fill="#FDA800" d="M126.677 31.7334C131.328 33.8055 137.49 35.4633 142.332 37.3382C144.802 38.2946 146.915 38.7383 149.298 40.0993C149.682 42.9772 149.562 48.2106 149.557 51.2024L149.541 68.3853L149.55 129.937C152.362 131.088 155.338 132.478 158.128 133.727C157.895 128.591 158.05 122.233 158.047 117.013L158.039 86.4859L158.032 58.9645C158.033 53.9508 157.892 47.6122 158.187 42.6778C164.716 45.7139 174.809 47.861 180.828 51.2911C181.857 51.8775 181.473 78.8924 181.473 81.3067L181.49 140.931C184.383 142.129 187.978 143.312 190.973 144.374C190.575 140.052 190.758 132.994 190.755 128.495L190.751 100.805L190.741 72.5272C190.738 67.081 190.554 59.5641 191.093 54.2848C195.269 56.0923 210.383 60.4788 212.725 62.4942C213.592 64.2686 213.215 87.5094 213.209 91.125L213.219 160.449C213.22 170.931 213.423 182.802 212.96 193.269C212.886 194.944 194.226 200.276 191.012 201.784C190.546 191.789 190.638 180.492 190.774 170.426C186.682 168.595 181.324 166.66 177.047 164.971L149.487 154.072C149.817 165.825 149.528 177.649 149.534 189.409C149.537 193.863 150.167 212.092 149.115 215.233C149.078 215.344 148.985 215.66 148.91 215.741C147.849 216.876 129.874 222.678 126.533 224.373C126.04 220.27 126.263 211.579 126.263 207.108L126.265 175.763L126.264 70.7214C126.264 65.8548 125.981 33.1121 126.677 31.7334Z"/><path fill="#FEFEFE" fill-opacity="0.97647059" d="M232.319 49.458C232.704 52.1079 232.534 58.9804 232.529 61.8986L232.507 85.0074L232.51 168.121C232.51 171.664 232.822 205.833 232.196 207.352C231.606 205.777 231.996 166.714 231.997 161.419L231.995 88.4934C231.996 76.2301 231.981 63.9437 232.014 51.6792C232.016 50.8174 232.095 50.291 232.319 49.458Z"/></svg>